# xmcd CD database file
#
# Track frame offsets:
#	150
#	15412
#	41540
#	59602
#	82205
#	100777
#	129005
#	166152
#	188587
#
# Disc length: 3070 seconds
#
# Revision: 0
# Processed by: cddbd v1.5.2PL0 Copyright (c) Steve Scherf et al.
# Submitted via: CDex 1.51
#
DISCID=650bfc09
DTITLE=Eric Clapton - All Inspiration - CD2
DYEAR=1995
DGENRE=Blues
TTITLE0=I'm Tore Down
TTITLE1=Blues Leaves Me Alone
TTITLE2=Crosscut Saw
TTITLE3=Five Long Years
TTITLE4=Born On The Bad Side
TTITLE5=Crossroad
TTITLE6=Runover Blues
TTITLE7=Ain't Nobody's Business
TTITLE8=Sweet Home Chicago
EXTD=YEAR: 1995
EXTT0=
EXTT1=
EXTT2=
EXTT3=
EXTT4=
EXTT5=
EXTT6=
EXTT7=
EXTT8=
PLAYORDER=
